<svg xmlns="http://www.w3.org/2000/svg" width="32" height="32" viewBox="0 0 32 32">
  <rect width="32" height="32" rx="7" fill="#0b2a4a"/>
  <g fill="none" stroke="#f4f7fb" stroke-width="2" stroke-linecap="round" stroke-linejoin="round" transform="translate(4 4)">
    <path d="m18 14 3-8 3 8c-.87.65-1.92 1-3 1s-2.13-.35-3-1Z"/>
    <path d="m0 14 3-8 3 8c-.87.65-1.92 1-3 1s-2.13-.35-3-1Z"/>
    <path d="M5 19h14"/>
    <path d="M12 1v18"/>
    <path d="M1 5h2c2 0 5-1 7-2 2 1 5 2 7 2h2"/>
  </g>
</svg>
